<svg version="1" xmlns="http://www.w3.org/2000/svg" width="682.667" height="682.667" viewBox="0 0 512.000000 512.000000"><path d="M91 .7c-2 .4-14.9 3.5-19.5 4.7-5.2 1.4-17.4 7.5-24.5 12.2C23.5 33.1 7.2 57.9 1.5 87.1.3 93.4.1 118.7.3 259l.2 164.5 2.4 8.5c5.5 19.8 14.2 35.1 27.6 48.6C43 493.2 56.8 501.7 73.3 507c15.3 5 10.4 4.8 185.7 4.6l164.5-.1 8-2.3c20.7-5.8 32.3-12.1 47.2-25.6 16.3-14.8 28-36.6 31.8-59.3 1.2-7.5 1.4-32.5 1.2-172.3l-.2-163.5-2.3-8c-1.3-4.4-2.5-8.5-2.6-9-1.5-5.3-6.9-16.1-11.9-23.8-14.8-22.7-36.4-38-63.7-45L422.5.5 258 .4C167.5.3 92.4.5 91 .7z"/></svg>