<svg width="910" height="133" viewBox="0 0 910 133" fill="none" xmlns="http://www.w3.org/2000/svg">
<path d="M0 13H102.409V33.4934H20.4701V53.9635H102.374V74.4453H20.4701V115.409H0V13Z" fill="white"/>
<path d="M234.714 115.409H132.305V13H152.787V94.8921H234.679L234.714 115.409Z" fill="white"/>
<path d="M367.054 13V33.4934H264.645V13H367.054ZM367.054 53.9402V74.4453H264.645V53.9635L367.054 53.9402ZM367.054 94.8921V115.409H264.645V94.9154L367.054 94.8921Z" fill="white"/>
<path d="M435.424 64.2044L397.02 13H422.622L448.225 47.2255L473.827 13H499.429L461.026 64.2044L499.429 115.409H473.827L448.225 81.1833L422.622 115.409H397.02L435.424 64.2044Z" fill="white"/>
<path d="M727.253 105H710.005L720.869 28.168H757.829C761.712 28.168 765.184 29.0267 768.245 30.744C771.307 32.3867 773.696 34.7013 775.413 37.688C777.205 40.6747 778.101 44.0347 778.101 47.768C778.101 52.9947 776.981 57.6987 774.741 61.88C772.501 66.0613 769.328 69.3467 765.221 71.736C761.189 74.1253 756.523 75.32 751.221 75.32H731.397L727.253 105ZM733.301 61.768H749.093C752.453 61.768 755.141 60.6107 757.157 58.296C759.173 55.9813 760.293 53.2933 760.517 50.232C760.517 47.9173 759.733 45.976 758.165 44.408C756.597 42.7653 754.507 41.944 751.893 41.944H736.101L733.301 61.768ZM840.251 47.768C836.219 75.6933 834.203 90.4027 834.203 91.896C834.203 92.8667 834.427 93.6133 834.875 94.136C835.397 94.6587 836.107 94.92 837.003 94.92C837.749 94.92 838.571 94.7707 839.467 94.472C840.363 94.1733 841.109 93.8 841.707 93.352L840.139 103.768C838.869 104.44 837.301 105 835.435 105.448C833.643 105.896 831.851 106.12 830.059 106.12C822.741 106.12 818.784 103.283 818.187 97.608C815.947 100.221 813.296 102.312 810.235 103.88C807.248 105.373 804.037 106.12 800.603 106.12C794.405 106.12 789.627 104.141 786.267 100.184C782.981 96.2267 781.339 90.7013 781.339 83.608C781.339 76.8133 782.421 70.616 784.587 65.016C786.827 59.416 789.963 54.9733 793.995 51.688C798.101 48.328 802.88 46.648 808.331 46.648C811.765 46.648 814.827 47.3947 817.515 48.888C820.277 50.3067 822.405 52.2853 823.899 54.824H824.571L828.267 47.768H840.251ZM819.195 81.368C820.24 73.9013 820.763 69.7573 820.763 68.936C820.763 65.576 819.941 63 818.299 61.208C816.656 59.416 814.453 58.52 811.691 58.52C808.48 58.52 805.717 59.6773 803.403 61.992C801.163 64.3067 799.707 67.6667 799.035 72.072C797.989 79.5387 797.467 83.6827 797.467 84.504C797.467 87.864 798.288 90.44 799.931 92.232C801.573 94.024 803.776 94.92 806.539 94.92C809.675 94.92 812.4 93.7627 814.715 91.448C817.029 89.1333 818.523 85.7733 819.195 81.368ZM881.652 101.864C873.364 117.917 863.956 125.944 853.428 125.944C849.471 125.944 846.41 125.384 844.244 124.264L845.7 112.728C846.522 113.101 847.604 113.437 848.948 113.736C850.367 114.109 851.711 114.296 852.98 114.296C857.759 114.296 861.642 110.824 864.628 103.88L850.964 47.768H868.324L875.828 83.72H876.5L893.524 47.768H909.652L881.652 101.864Z" fill="white"/>
<path d="M667.429 0V25.6145H539.429V0H667.429ZM667.429 51.1709V76.8H539.429V51.2L667.429 51.1709ZM667.429 102.356V128H539.429V102.385L667.429 102.356Z" fill="url(#paint0_linear_2_266)"/>
<defs>
<linearGradient id="paint0_linear_2_266" x1="539.487" y1="64" x2="667.429" y2="64" gradientUnits="userSpaceOnUse">
<stop stop-color="#b89e14"/>
<stop offset="1" stop-color="#CF8900"/>
</linearGradient>
</defs>
</svg>
