<svg width="512" height="55" viewBox="0 0 512 55" fill="none" xmlns="http://www.w3.org/2000/svg">
<g clip-path="url(#clip0)">
<path d="M13.7945 21.9513H4.82951V28.8669H12.6666V30.5741H4.82951V38.2419H0V20.2441H13.7945V21.9513Z" fill="white"/>
<path d="M33.2257 36.5347H41.9015V38.2419H28.5408V20.2441H33.2257V36.5347Z" fill="white"/>
<path d="M61.2898 36.5347H70.6307V38.2419H56.4603V20.2441H70.2547V21.9513H61.2898V28.1724H69.069V29.8796H61.2898V36.5347Z" fill="white"/>
<path d="M95.9156 28.9247L102.943 38.2419H97.9399L93.3417 31.7604L88.7147 38.2419H83.9141L90.7969 29.2141L84.1454 20.2441H89.1774L93.3417 26.3206L97.4772 20.2441H102.307L95.9156 28.9247Z" fill="white"/>
<path d="M190.983 20.6172V22.3244H184.36V38.615H181.844V22.3244H175.222V20.6172H190.983Z" fill="white"/>
<path d="M208.318 36.9078H218.382V38.615H205.744V20.6172H217.977V22.3244H208.318V28.5455H216.791V30.2527H208.318V36.9078Z" fill="white"/>
<path d="M248.282 26.6647H245.737V23.2214C245.737 22.8356 245.679 22.5944 245.563 22.498C245.447 22.3822 245.206 22.3244 244.84 22.3244H237.437C237.071 22.3244 236.83 22.3822 236.714 22.498C236.598 22.5944 236.54 22.8356 236.54 23.2214V36.0108C236.54 36.3966 236.598 36.6474 236.714 36.7631C236.83 36.8596 237.071 36.9078 237.437 36.9078H244.84C245.206 36.9078 245.447 36.8596 245.563 36.7631C245.679 36.6474 245.737 36.3966 245.737 36.0108V32.5675H248.282V36.3291C248.282 37.853 247.52 38.615 245.997 38.615H236.28C234.757 38.615 233.995 37.853 233.995 36.3291V22.9031C233.995 21.3792 234.757 20.6172 236.28 20.6172H245.997C247.52 20.6172 248.282 21.3792 248.282 22.9031V26.6647Z" fill="white"/>
<path d="M277.651 20.6172H280.196V38.615H277.651V30.4552H267.008V38.615H264.463V20.6172H267.008V28.748H277.651V20.6172Z" fill="white"/>
<path d="M310.247 20.6172H312.56V38.615H310.015L299.865 23.5975V38.615H297.551V20.6172H300.241L310.247 35.49V20.6172Z" fill="white"/>
<path d="M343.641 22.9031V36.3291C343.641 37.853 342.88 38.615 341.356 38.615H331.9C330.377 38.615 329.615 37.853 329.615 36.3291V22.9031C329.615 21.3792 330.377 20.6172 331.9 20.6172H341.356C342.88 20.6172 343.641 21.3792 343.641 22.9031ZM341.154 36.0108V23.2214C341.154 22.8356 341.096 22.5944 340.981 22.498C340.884 22.3822 340.643 22.3244 340.258 22.3244H333.028C332.642 22.3244 332.392 22.3822 332.276 22.498C332.179 22.5944 332.131 22.8356 332.131 23.2214V36.0108C332.131 36.3966 332.179 36.6474 332.276 36.7631C332.392 36.8596 332.642 36.9078 333.028 36.9078H340.258C340.643 36.9078 340.884 36.8596 340.981 36.7631C341.096 36.6474 341.154 36.3966 341.154 36.0108Z" fill="white"/>
<path d="M363.221 36.9078H372.533V38.615H360.705V20.6172H363.221V36.9078Z" fill="white"/>
<path d="M401.598 22.9031V36.3291C401.598 37.853 400.837 38.615 399.314 38.615H389.857C388.334 38.615 387.572 37.853 387.572 36.3291V22.9031C387.572 21.3792 388.334 20.6172 389.857 20.6172H399.314C400.837 20.6172 401.598 21.3792 401.598 22.9031ZM399.111 36.0108V23.2214C399.111 22.8356 399.053 22.5944 398.938 22.498C398.841 22.3822 398.6 22.3244 398.215 22.3244H390.985C390.599 22.3244 390.349 22.3822 390.233 22.498C390.137 22.5944 390.088 22.8356 390.088 23.2214V36.0108C390.088 36.3966 390.137 36.6474 390.233 36.7631C390.349 36.8596 390.599 36.9078 390.985 36.9078H398.215C398.6 36.9078 398.841 36.8596 398.938 36.7631C399.053 36.6474 399.111 36.3966 399.111 36.0108Z" fill="white"/>
<path d="M432.687 26.057H430.143V23.2214C430.143 22.8356 430.085 22.5944 429.969 22.498C429.873 22.3822 429.632 22.3244 429.246 22.3244H421.814C421.447 22.3244 421.207 22.3822 421.091 22.498C420.975 22.5944 420.917 22.8356 420.917 23.2214V36.0108C420.917 36.3966 420.975 36.6474 421.091 36.7631C421.207 36.8596 421.447 36.9078 421.814 36.9078H429.275C429.641 36.9078 429.882 36.8596 429.998 36.7631C430.114 36.6474 430.171 36.3966 430.171 36.0108V31.0628H425.284V29.3557H432.687V36.3291C432.687 37.853 431.926 38.615 430.403 38.615H420.657C419.134 38.615 418.372 37.853 418.372 36.3291V22.9031C418.372 21.3792 419.134 20.6172 420.657 20.6172H430.403C431.926 20.6172 432.687 21.3792 432.687 22.9031V26.057Z" fill="white"/>
<path d="M449.751 20.6172H452.296V38.615H449.751V20.6172Z" fill="white"/>
<path d="M472.499 36.9078H482.563V38.615H469.925V20.6172H482.158V22.3244H472.499V28.5455H480.973V30.2527H472.499V36.9078Z" fill="white"/>
<path d="M509.484 36.0108V31.2943C509.484 30.9278 509.427 30.6867 509.311 30.5709C509.215 30.4552 508.974 30.3973 508.588 30.3973H500.172C498.649 30.3973 497.888 29.6354 497.888 28.1114V22.9031C497.888 21.3792 498.649 20.6172 500.172 20.6172H509.629C511.152 20.6172 511.914 21.3792 511.914 22.9031V25.7677H509.369V23.2214C509.369 22.8356 509.311 22.5944 509.195 22.498C509.099 22.3822 508.858 22.3244 508.472 22.3244H501.329C500.963 22.3244 500.722 22.3822 500.606 22.498C500.491 22.5944 500.433 22.8356 500.433 23.2214V27.7932C500.433 28.179 500.491 28.4297 500.606 28.5455C500.722 28.6419 500.963 28.6901 501.329 28.6901H509.716C511.239 28.6901 512 29.4521 512 30.976V36.3291C512 37.853 511.239 38.615 509.716 38.615H500.23C498.707 38.615 497.946 37.853 497.946 36.3291V33.4645H500.491V36.0108C500.491 36.3966 500.548 36.6474 500.664 36.7631C500.78 36.8596 501.021 36.9078 501.387 36.9078H508.588C508.974 36.9078 509.215 36.8596 509.311 36.7631C509.427 36.6474 509.484 36.3966 509.484 36.0108Z" fill="white"/>
<path fill-rule="evenodd" clip-rule="evenodd" d="M166.239 0C166.389 0 166.53 0.0744011 166.616 0.186003C166.703 0.297604 166.719 0.446405 166.671 0.580327L162.915 9.62156C162.852 9.79268 162.68 9.91173 162.483 9.91173H133.121V21.8439H158.205C158.322 21.8439 158.434 21.9078 158.502 22.0037C158.57 22.0996 158.582 22.2274 158.545 22.3425L155.254 31.0679C155.204 31.215 155.068 31.3172 154.913 31.3172H148.492V31.3467V54.7192C148.492 54.9132 148.334 55.0707 148.14 55.0707H140.427C140.233 55.0707 140.075 54.9132 140.075 54.7192V31.3527V31.3172H133.121V32.052L133.128 32.9225V54.6178C133.128 54.8633 132.916 55.0568 132.665 55.0568H121.937C121.678 55.0568 121.474 54.8559 121.474 54.6178V8.90777C121.474 8.78128 121.536 8.66224 121.639 8.5804L127.114 4.11938L132.255 0.104161C132.357 0.0148798 132.498 -0.0148798 132.632 0.00744056C132.656 0 132.679 0 132.703 0H166.239ZM140.855 30.5939H140.883V31.3477V31.3527V54.3737H147.684V31.3056V30.5939H147.754V30.5769L154.653 30.5693L157.691 22.5918H133.121V30.5928H133.225L140.855 30.5845V30.5939ZM132.201 22.1492V22.5907V30.5933V32.6621V54.1863H122.393V9.10865L132.09 1.37642C132.238 1.23789 132.66 0.942762 133.158 0.870493H165.587L162.153 9.04123H133.27H132.201V11.7628V22.1492Z" fill="url(#paint0_linear)"/>
</g>
<defs>
<linearGradient id="paint0_linear" x1="169.488" y1="6.07736" x2="132.334" y2="26.633" gradientUnits="userSpaceOnUse">
<stop offset="0.00384747" stop-color="#A0752B"/>
<stop offset="0.00394747" stop-color="#BB9136"/>
<stop offset="0.2414" stop-color="#F6CE4F"/>
<stop offset="0.2947" stop-color="#FDD552"/>
<stop offset="0.358" stop-color="#FDD552"/>
<stop offset="0.7401" stop-color="#A0752B"/>
<stop offset="0.8079" stop-color="#91682A"/>
<stop offset="0.8719" stop-color="#976D2B"/>
<stop offset="1" stop-color="#603A17"/>
</linearGradient>
<clipPath id="clip0">
<rect width="512" height="55" fill="white"/>
</clipPath>
</defs>
</svg>
