<svg width="22" height="22" viewBox="0 0 22 22" fill="none" xmlns="http://www.w3.org/2000/svg">
<path d="M21.3555 20.7109H1.50391C1.38544 20.7109 1.28906 20.6146 1.28906 20.4961V16.2852C1.28906 15.9844 1.28906 15.9966 1.28906 15.6406C1.28906 15.2847 1.28906 15.2324 1.28906 14.9961V10.4844C1.28906 10.2051 1.28906 10.1958 1.28906 9.83984C1.28906 9.48389 1.28906 9.43164 1.28906 9.19531V4.70052C1.28906 4.36133 1.28906 4.41195 1.28906 4.05599C1.28906 3.70004 1.28906 3.67383 1.28906 3.41146V0.644531C1.28906 0.288578 1.00048 0 0.644531 0C0.288578 0 0 0.288578 0 0.644531V20.4961C0 21.3253 0.674652 22 1.50391 22H21.3555C21.7114 22 22 21.7114 22 21.3555C22 20.9995 21.7114 20.7109 21.3555 20.7109Z" fill="#9D9D9D"/>
<path d="M20.8336 5.07979L20.1285 3.1416C20.0701 2.98098 19.9502 2.8501 19.7952 2.77787C19.6403 2.7056 19.4631 2.69786 19.3024 2.7563L17.3642 3.46146C17.0297 3.58319 16.8572 3.95298 16.9789 4.28753C17.1006 4.62205 17.4703 4.79452 17.805 4.67288L18.3483 4.47522L13.1873 13.791L9.12293 12.0817C8.85218 11.9678 8.53886 12.0513 8.36071 12.2848L3.99938 17.9997C3.78342 18.2826 3.83777 18.6871 4.12072 18.903C4.23751 18.9921 4.37493 19.0352 4.51127 19.0352C4.70536 19.0352 4.89725 18.9479 5.02414 18.7817L9.08293 13.4633L13.2209 15.2036C13.5243 15.3311 13.8751 15.2096 14.0346 14.9218L19.4719 5.10708L19.6223 5.52052C19.7175 5.78229 19.9647 5.94488 20.228 5.94484C20.3012 5.94484 20.3756 5.93229 20.4483 5.90582C20.7828 5.78414 20.9554 5.4143 20.8336 5.07979Z" fill="#35CB3Baa"/>
</svg>
