<svg width="22" height="22" viewBox="0 0 22 22" fill="none" xmlns="http://www.w3.org/2000/svg">
<path d="M19.9694 9.72336C19.9671 9.72336 19.9648 9.72332 19.9625 9.72332C19.609 9.72332 19.3206 10.008 19.3169 10.3624L19.3123 10.81L13.9514 4.88787C13.7228 4.63535 13.3376 4.60381 13.071 4.8156L8.58738 8.37737L4.37163 9.20808C4.0217 9.27705 3.79396 9.61659 3.86288 9.96652C3.93185 10.3164 4.27113 10.5442 4.62133 10.4753L8.99103 9.61427C9.09222 9.59433 9.1871 9.55046 9.26788 9.48635L13.4003 6.20358L18.4429 11.7741L17.8815 11.7682C17.8792 11.7682 17.8769 11.7682 17.8746 11.7682C17.5211 11.7682 17.2327 12.0529 17.229 12.4072C17.2253 12.7638 17.5114 13.0559 17.868 13.0596L19.9344 13.0812C19.9366 13.0812 19.9388 13.0812 19.9411 13.0812C20.1099 13.0812 20.2722 13.0151 20.3929 12.8969C20.5153 12.777 20.585 12.6135 20.5868 12.4422L20.6084 10.3759C20.6121 10.0192 20.326 9.7271 19.9694 9.72336Z" fill="#E03C2D"/>
<path d="M21.3555 20.7109H1.50391C1.38544 20.7109 1.28906 20.6146 1.28906 20.4961V16.2852C1.28906 15.9844 1.28906 15.9966 1.28906 15.6406C1.28906 15.2847 1.28906 15.2324 1.28906 14.9961V10.4844C1.28906 10.2051 1.28906 10.1958 1.28906 9.83984C1.28906 9.48389 1.28906 9.43164 1.28906 9.19531V4.70052C1.28906 4.36133 1.28906 4.41195 1.28906 4.05599C1.28906 3.70004 1.28906 3.67383 1.28906 3.41146V0.644531C1.28906 0.288578 1.00048 0 0.644531 0C0.288578 0 0 0.288578 0 0.644531V20.4961C0 21.3253 0.674652 22 1.50391 22H21.3555C21.7114 22 22 21.7114 22 21.3555C22 20.9995 21.7114 20.7109 21.3555 20.7109Z" fill="#9D9D9D"/>
</svg>
