<svg width="147" height="147" viewBox="0 0 147 147" fill="none" xmlns="http://www.w3.org/2000/svg">
<path d="M41.9392 49.9676C44.6469 52.1153 47.168 53.3757 47.168 53.3757V40.0237C47.168 40.0237 41.3206 37.3741 39.0448 40.724C36.9318 43.8336 39.2312 47.8202 41.9392 49.9676Z" fill="#3EBEEA"/>
<path d="M85.453 113.521H50.7645C47.425 113.521 44.7175 110.814 44.7175 107.474V20.804C44.7175 17.4645 47.425 14.757 50.7645 14.757H85.453C88.7926 14.757 91.5 17.4645 91.5 20.804V107.474C91.5 110.814 88.7926 113.521 85.453 113.521Z" fill="white"/>
<path d="M92.5 21.1806V106.906C92.5 111.08 89.1161 114.464 84.9421 114.464H51.4935C47.3192 114.464 43.9356 111.08 43.9356 106.906V21.1806C43.9356 17.0064 47.3195 13.6228 51.4935 13.6228H84.9418C89.1161 13.6228 92.5 17.0064 92.5 21.1806ZM90.4485 21.1806C90.4485 18.1442 87.9783 15.674 84.9418 15.674H51.4932C48.4567 15.674 45.9865 18.1442 45.9865 21.1806V106.906C45.9865 109.942 48.4567 112.412 51.4932 112.412H84.9418C87.9783 112.412 90.4485 109.942 90.4485 106.906V21.1806Z" fill="#333333"/>
<path d="M92.4985 71.8163L93.654 72.6915C93.7939 71.4311 93.7589 68.1045 93.4438 65.1634C93.1286 62.2222 93.2335 61.1367 93.2335 61.1367L92.8834 60.2615C91.4128 56.8302 90.5681 53.6439 90.5726 46.5008C90.5787 35.9595 98.1357 38.3776 98.1357 38.3776L100.493 47.4228C100.493 47.4228 100.779 47.446 100.937 47.7439C101.095 48.0414 102.04 50.5275 103.038 51.8931C104.036 53.2587 105.162 55.5696 105.372 57.3903C105.409 57.7049 105.383 58.0462 105.436 58.4049C105.452 58.5134 105.539 58.6233 105.556 58.7348C105.814 60.3864 106.23 62.3339 106.773 63.7627C107.473 65.6067 109.2 70.7305 110.496 73.2516C111.792 75.7726 111.547 77.2432 111.686 78.8188C111.826 80.3943 113.052 89.8132 113.682 93.5247C114.312 97.2361 114.663 100.738 114.032 104.029C113.402 107.32 115.083 109.911 115.083 109.911C115.083 109.911 119.144 116.517 122.272 121.979C125.4 127.442 131.609 138.763 131.609 138.763H88.8973C88.8973 138.763 84.2236 131.69 78.528 129.823C72.8323 127.955 68.7707 124.641 65.8763 121.98C62.9818 119.319 57.1927 114.463 57.1927 114.463H85.8885C89.5391 114.463 92.4985 111.504 92.4985 107.853V71.8163Z" fill="#F8C58B"/>
<path d="M43.9336 37.1054C43.9336 37.1054 38.0862 34.4559 35.8104 37.8057C33.6974 40.9154 35.9971 44.902 38.7048 47.0494C41.4125 49.1971 43.9336 50.4574 43.9336 50.4574V37.1054Z" fill="#F8C58B"/>
<path d="M43.9336 53.3519C43.9336 53.3519 39.3002 52.4181 37.281 53.9354C35.2618 55.4528 33.5927 57.9503 34.55 60.6581C35.7727 64.1178 37.9627 66.167 39.0341 66.3769C40.1054 66.5872 43.1565 67.1031 44.2138 64.5562C44.7274 63.3191 45.4742 59.7943 43.9336 56.9231V53.3519Z" fill="#F8C58B"/>
<path d="M37.9512 63.8404C37.9512 63.8404 35.4898 61.1811 37.2917 58.5219C39.0936 55.8626 42.0827 57.2912 42.8301 58.4119C41.5773 59.2581 38.8082 62.8184 38.2813 64.147C38.281 64.1476 38.2804 64.1476 38.2801 64.1473L37.9512 63.8404Z" fill="#F8DCAE"/>
<path d="M43.9347 70.2522C43.9347 70.2522 42.3006 69.3184 39.8731 69.9488C37.4455 70.5791 36.0681 71.6296 34.8777 72.9834C33.6873 74.3373 32.3799 77.6286 34.5508 80.1964C36.7217 82.7642 38.3322 84.7717 41.5068 84.2113C44.6814 83.6509 45.0084 81.4101 45.1251 80.8032C45.2418 80.1964 45.7904 77.3485 43.9347 75.4051V70.2522Z" fill="#F8C58B"/>
<path d="M38.7053 82.2271C38.7053 82.2271 39.9892 79.0525 43.0703 77.0451C43.0703 77.0451 40.3626 73.1002 37.3979 76.298C34.4335 79.4958 38.7053 82.2271 38.7053 82.2271Z" fill="#F8DCAE"/>
<path d="M43.9343 90.0587C43.4674 89.5568 39.8027 88.5763 37.8653 89.5336C36.0307 90.4397 34.1894 93.1901 34.9009 96.7466C35.5136 99.8104 38.2142 101.024 39.3126 101.439C41.2983 102.188 42.7792 102.647 43.9346 103.697V100.861C43.9346 100.861 47.0325 97.6921 45.2911 94.6107C45.2911 94.6107 44.6176 93.315 43.9346 92.8949C43.9343 92.8946 43.9343 90.829 43.9343 90.0587Z" fill="#F8C58B"/>
<path d="M40.6805 99.088C40.6805 99.088 40.5044 95.7431 43.2109 93.9486C43.2109 93.9486 41.0768 91.4887 39.1452 94.862C37.5312 97.6803 40.6805 99.088 40.6805 99.088Z" fill="#F8DCAE"/>
<path d="M39.0288 101.327C39.1311 101.369 39.2267 101.406 39.3116 101.438C41.2973 102.188 42.7782 102.646 43.9336 103.697V100.861C43.5646 101.402 41.5255 102.338 39.0288 101.327Z" fill="#F8AA78"/>
<path d="M38.8438 101.249C38.792 101.226 38.7406 101.204 38.6885 101.179C38.7415 101.204 38.7932 101.227 38.8438 101.249Z" fill="#F8AA78"/>
<path d="M43.9336 92.8945C43.9336 92.8945 42.8305 91.7215 42.0252 91.1264C42.0252 91.1264 43.4608 91.284 43.9336 92.1419V92.8945Z" fill="#F8C58B"/>
<path d="M100.494 47.4228C100.494 47.4228 99.9106 42.1005 98.3465 38.6693C98.3465 38.6693 97.6462 38.9727 97.7161 39.9999C97.7864 41.0271 97.7397 45.6488 100.494 47.4228Z" fill="#F8DCAE"/>
<path d="M93.2331 61.1367L93.2207 61.3813C93.2207 61.3813 96.7811 62.5723 99.6758 60.0977C99.6758 60.098 96.4482 62.1054 93.2331 61.1367Z" fill="#F8AA78"/>
<path d="M104.937 55.5787C104.937 55.5787 103.668 56.5033 102.735 56.7132C102.735 56.7132 104.068 56.7367 105.064 55.9723L104.937 55.5787Z" fill="#F8AA78"/>
<path d="M105.437 58.4049C105.437 58.4049 104.229 58.5983 103.564 58.5457C102.899 58.4931 104.643 58.8188 105.557 58.7347C105.557 58.7347 105.544 58.5966 105.437 58.4049Z" fill="#F8AA78"/>
<path d="M93.7013 80.1494C93.3414 85.0762 93.0242 88.6927 93.0242 90.2336C93.0242 90.2336 93.2344 98.567 93.5143 101.858C93.7945 105.15 94.6347 108.161 93.3744 111.802C92.114 115.444 90.0131 116.144 79.7889 115.024C77.2329 114.743 75.0008 114.569 73.0901 114.463H84.9533C89.1208 114.463 92.4988 111.085 92.4988 106.918V71.8162L93.6543 72.6915C93.6546 72.6915 93.9915 76.1801 93.7013 80.1494Z" fill="#E8B07F"/>
<path d="M90.051 146.119L134.457 142.564L117.625 111.535L82.5757 133.378L90.051 146.119Z" fill="white"/>
<path d="M87.8397 146.784L84.1259 140.129L124.146 118.823L140.016 146.784H87.8397Z" fill="#0D3E62"/>
<path d="M114.908 146.784L105.369 128.848L124.146 118.823L140.016 146.784H114.908Z" fill="#084C7B"/>
<path d="M92.4989 92.2739V102.963C93.5402 107.052 97.7109 108.92 97.7109 108.92C91.733 103.601 92.5142 94.0623 92.4989 92.2739Z" fill="#E8B07F"/>
<path d="M92.4992 102.391V106.919C92.4992 111.094 89.1152 114.463 84.941 114.463H57.193L60.5667 117.324L87.4594 116.702C91.0988 116.702 94.0488 113.751 94.0488 110.112V105.44L92.4992 102.391Z" fill="#E8B07F"/>
<path d="M68.3019 79.7563C61.0171 79.7563 55.1116 73.8508 55.1116 66.566C55.1116 59.2812 61.0171 53.3757 68.3019 53.3757C75.5867 53.3757 81.4922 59.2812 81.4922 66.566C81.4922 73.8508 75.5867 79.7563 68.3019 79.7563Z" fill="#6ABD45"/>
<path d="M65.9406 73.7864C65.3676 73.7864 64.8181 73.5588 64.413 73.1537L60.1856 68.9263C59.3418 68.0825 59.3418 66.7145 60.1856 65.8707C61.0293 65.027 62.3973 65.027 63.2411 65.8707L65.9409 68.5705L72.3707 62.1408C73.2145 61.297 74.5825 61.297 75.4262 62.1408C76.27 62.9845 76.27 64.3525 75.4262 65.1963L67.4685 73.154C67.0631 73.5588 66.5136 73.7864 65.9406 73.7864Z" fill="white"/>
</svg>
